<svg width="22" height="25" viewBox="0 0 22 25" fill="none" xmlns="http://www.w3.org/2000/svg">
<path d="M6.66667 5.72919C6.2225 5.72919 5.85417 5.36085 5.85417 4.91669V1.66669C5.85417 1.22252 6.2225 0.854187 6.66667 0.854187C7.11083 0.854187 7.47917 1.22252 7.47917 1.66669V4.91669C7.47917 5.36085 7.11083 5.72919 6.66667 5.72919Z" fill="#222222"/>
<path d="M15.3333 5.72919C14.8892 5.72919 14.5208 5.36085 14.5208 4.91669V1.66669C14.5208 1.22252 14.8892 0.854187 15.3333 0.854187C15.7775 0.854187 16.1458 1.22252 16.1458 1.66669V4.91669C16.1458 5.36085 15.7775 5.72919 15.3333 5.72919Z" fill="#222222"/>
<path d="M7.20833 15.2084C7.0675 15.2084 6.92667 15.1759 6.79667 15.1217C6.65583 15.0675 6.5475 14.9917 6.43917 14.8942C6.24417 14.6884 6.125 14.4175 6.125 14.125C6.125 13.9842 6.1575 13.8434 6.21167 13.7134C6.26584 13.5834 6.34167 13.4642 6.43917 13.3559C6.5475 13.2584 6.65583 13.1825 6.79667 13.1283C7.18667 12.9658 7.67417 13.0525 7.9775 13.3559C8.1725 13.5617 8.29167 13.8434 8.29167 14.125C8.29167 14.19 8.28083 14.2659 8.27 14.3417C8.25917 14.4067 8.2375 14.4717 8.205 14.5367C8.18333 14.6017 8.15084 14.6667 8.1075 14.7317C8.075 14.7859 8.02083 14.84 7.9775 14.8942C7.77167 15.0892 7.49 15.2084 7.20833 15.2084Z" fill="#222222"/>
<path d="M11 15.2083C10.8592 15.2083 10.7183 15.1759 10.5883 15.1217C10.4475 15.0675 10.3392 14.9917 10.2308 14.8942C10.0358 14.6883 9.91667 14.4175 9.91667 14.125C9.91667 13.9842 9.94917 13.8433 10.0033 13.7133C10.0575 13.5833 10.1333 13.4642 10.2308 13.3559C10.3392 13.2584 10.4475 13.1825 10.5883 13.1283C10.9783 12.955 11.4658 13.0525 11.7692 13.3559C11.9642 13.5617 12.0833 13.8433 12.0833 14.125C12.0833 14.19 12.0725 14.2659 12.0617 14.3417C12.0508 14.4067 12.0292 14.4717 11.9967 14.5367C11.975 14.6017 11.9425 14.6667 11.8992 14.7317C11.8667 14.7858 11.8125 14.84 11.7692 14.8942C11.5633 15.0892 11.2817 15.2083 11 15.2083Z" fill="#222222"/>
<path d="M14.7917 15.2083C14.6508 15.2083 14.51 15.1759 14.38 15.1217C14.2392 15.0675 14.1308 14.9917 14.0225 14.8942C13.9792 14.84 13.9358 14.7858 13.8925 14.7317C13.8492 14.6667 13.8167 14.6017 13.795 14.5367C13.7625 14.4717 13.7408 14.4067 13.73 14.3417C13.7192 14.2659 13.7083 14.19 13.7083 14.125C13.7083 13.8433 13.8275 13.5617 14.0225 13.3559C14.1308 13.2584 14.2392 13.1825 14.38 13.1283C14.7808 12.955 15.2575 13.0525 15.5608 13.3559C15.7558 13.5617 15.875 13.8433 15.875 14.125C15.875 14.19 15.8642 14.2659 15.8533 14.3417C15.8425 14.4067 15.8208 14.4717 15.7883 14.5367C15.7667 14.6017 15.7342 14.6667 15.6908 14.7317C15.6583 14.7858 15.6042 14.84 15.5608 14.8942C15.355 15.0892 15.0733 15.2083 14.7917 15.2083Z" fill="#222222"/>
<path d="M7.20833 19C7.0675 19 6.92667 18.9675 6.79667 18.9134C6.66667 18.8592 6.5475 18.7833 6.43917 18.6858C6.24417 18.48 6.125 18.1984 6.125 17.9167C6.125 17.7759 6.1575 17.635 6.21167 17.505C6.26584 17.3642 6.34167 17.245 6.43917 17.1475C6.84 16.7467 7.57667 16.7467 7.9775 17.1475C8.1725 17.3534 8.29167 17.635 8.29167 17.9167C8.29167 18.1984 8.1725 18.48 7.9775 18.6858C7.77167 18.8808 7.49 19 7.20833 19Z" fill="#222222"/>
<path d="M11 19C10.7183 19 10.4367 18.8808 10.2308 18.6858C10.0358 18.48 9.91667 18.1984 9.91667 17.9167C9.91667 17.7759 9.94917 17.635 10.0033 17.505C10.0575 17.3642 10.1333 17.245 10.2308 17.1475C10.6317 16.7467 11.3683 16.7467 11.7692 17.1475C11.8667 17.245 11.9425 17.3642 11.9967 17.505C12.0508 17.635 12.0833 17.7759 12.0833 17.9167C12.0833 18.1984 11.9642 18.48 11.7692 18.6858C11.5633 18.8808 11.2817 19 11 19Z" fill="#222222"/>
<path d="M14.7917 19.0001C14.51 19.0001 14.2283 18.8809 14.0225 18.6859C13.925 18.5884 13.8492 18.4692 13.795 18.3284C13.7408 18.1984 13.7083 18.0576 13.7083 17.9167C13.7083 17.7759 13.7408 17.6351 13.795 17.5051C13.8492 17.3642 13.925 17.2451 14.0225 17.1476C14.2717 16.8984 14.6508 16.7792 14.9975 16.855C15.0733 16.8659 15.1383 16.8875 15.2033 16.92C15.2683 16.9417 15.3333 16.9742 15.3983 17.0176C15.4525 17.0501 15.5067 17.1042 15.5608 17.1476C15.7558 17.3534 15.875 17.6351 15.875 17.9167C15.875 18.1984 15.7558 18.48 15.5608 18.6859C15.355 18.8809 15.0733 19.0001 14.7917 19.0001Z" fill="#222222"/>
<path d="M20.2083 10.16H1.79167C1.3475 10.16 0.979167 9.79165 0.979167 9.34748C0.979167 8.90332 1.3475 8.53498 1.79167 8.53498H20.2083C20.6525 8.53498 21.0208 8.90332 21.0208 9.34748C21.0208 9.79165 20.6525 10.16 20.2083 10.16Z" fill="#222222"/>
<path d="M15.3333 24.1459H6.66667C2.7125 24.1459 0.4375 21.8709 0.4375 17.9167V8.70835C0.4375 4.75419 2.7125 2.47919 6.66667 2.47919H15.3333C19.2875 2.47919 21.5625 4.75419 21.5625 8.70835V17.9167C21.5625 21.8709 19.2875 24.1459 15.3333 24.1459ZM6.66667 4.10419C3.56833 4.10419 2.0625 5.61002 2.0625 8.70835V17.9167C2.0625 21.015 3.56833 22.5209 6.66667 22.5209H15.3333C18.4317 22.5209 19.9375 21.015 19.9375 17.9167V8.70835C19.9375 5.61002 18.4317 4.10419 15.3333 4.10419H6.66667Z" fill="#222222"/>
</svg>
