<svg width="100" height="100" viewBox="0 0 100 100" fill="none" xmlns="http://www.w3.org/2000/svg">
<path d="M54.1658 61.4583H49.9992C48.2908 61.4583 46.8742 60.0417 46.8742 58.3333C46.8742 56.625 48.2908 55.2083 49.9992 55.2083H54.1658C57.0408 55.2083 59.3742 52.875 59.3742 50V11.4583H24.9992C20.0825 11.4583 15.5824 14.1249 13.1657 18.4166C12.3324 19.9166 10.4159 20.4584 8.91588 19.6251C7.41588 18.7918 6.87405 16.875 7.70739 15.375C11.2074 9.12501 17.8325 5.20833 24.9992 5.20833H62.4992C64.2075 5.20833 65.6242 6.62499 65.6242 8.33333V50C65.6242 56.3333 60.4992 61.4583 54.1658 61.4583Z" fill="#0D6EFD"/>
<path d="M79.1666 86.4583H74.9999C73.2916 86.4583 71.8749 85.0417 71.8749 83.3333C71.8749 80.4583 69.5416 78.125 66.6666 78.125C63.7916 78.125 61.4582 80.4583 61.4582 83.3333C61.4582 85.0417 60.0416 86.4583 58.3332 86.4583H41.6666C39.9583 86.4583 38.5416 85.0417 38.5416 83.3333C38.5416 80.4583 36.2083 78.125 33.3333 78.125C30.4583 78.125 28.1249 80.4583 28.1249 83.3333C28.1249 85.0417 26.7083 86.4583 24.9999 86.4583H20.8333C12.2083 86.4583 5.20825 79.4583 5.20825 70.8333C5.20825 69.125 6.62492 67.7083 8.33325 67.7083C10.0416 67.7083 11.4583 69.125 11.4583 70.8333C11.4583 76 15.6666 80.2083 20.8333 80.2083H22.2915C23.6665 75.4167 28.0833 71.875 33.3333 71.875C38.5833 71.875 43 75.4167 44.375 80.2083H55.6665C57.0415 75.4167 61.4583 71.875 66.7083 71.875C71.9583 71.875 76.3748 75.4167 77.7498 80.2083H79.1666C84.3333 80.2083 88.5416 76 88.5416 70.8333V61.4583H79.1666C75.1666 61.4583 71.8749 58.1667 71.8749 54.1667V41.6667C71.8749 37.6667 75.1249 34.375 79.1666 34.375L74.7082 26.5833C73.7915 24.9583 72.0417 23.9583 70.1667 23.9583H65.6249V50C65.6249 56.3333 60.4999 61.4583 54.1666 61.4583H49.9999C48.2916 61.4583 46.8749 60.0417 46.8749 58.3333C46.8749 56.625 48.2916 55.2083 49.9999 55.2083H54.1666C57.0416 55.2083 59.3749 52.875 59.3749 50V20.8333C59.3749 19.125 60.7916 17.7083 62.4999 17.7083H70.1667C74.2917 17.7083 78.0832 19.9167 80.1248 23.5001L87.2499 35.9583C87.7916 36.9167 87.7916 38.125 87.2499 39.0833C86.7083 40.0417 85.6665 40.625 84.5415 40.625H79.1666C78.5833 40.625 78.1249 41.0833 78.1249 41.6667V54.1667C78.1249 54.75 78.5833 55.2083 79.1666 55.2083H91.6666C93.3749 55.2083 94.7916 56.625 94.7916 58.3333V70.8333C94.7916 79.4583 87.7916 86.4583 79.1666 86.4583Z" fill="#0D6EFD"/>
<path d="M33.3333 94.7917C27 94.7917 21.875 89.6667 21.875 83.3333C21.875 77 27 71.875 33.3333 71.875C39.6667 71.875 44.7917 77 44.7917 83.3333C44.7917 89.6667 39.6667 94.7917 33.3333 94.7917ZM33.3333 78.125C30.4583 78.125 28.125 80.4583 28.125 83.3333C28.125 86.2083 30.4583 88.5417 33.3333 88.5417C36.2083 88.5417 38.5417 86.2083 38.5417 83.3333C38.5417 80.4583 36.2083 78.125 33.3333 78.125Z" fill="#0D6EFD"/>
<path d="M66.6666 94.7917C60.3333 94.7917 55.2083 89.6667 55.2083 83.3333C55.2083 77 60.3333 71.875 66.6666 71.875C72.9999 71.875 78.1249 77 78.1249 83.3333C78.1249 89.6667 72.9999 94.7917 66.6666 94.7917ZM66.6666 78.125C63.7916 78.125 61.4583 80.4583 61.4583 83.3333C61.4583 86.2083 63.7916 88.5417 66.6666 88.5417C69.5416 88.5417 71.8749 86.2083 71.8749 83.3333C71.8749 80.4583 69.5416 78.125 66.6666 78.125Z" fill="#0D6EFD"/>
<path d="M91.6667 61.4583H79.1667C75.1667 61.4583 71.875 58.1667 71.875 54.1667V41.6667C71.875 37.6667 75.1667 34.375 79.1667 34.375H84.5416C85.6666 34.375 86.7083 34.9584 87.25 35.9584L94.3751 48.4584C94.6251 48.9167 94.7917 49.4583 94.7917 50V58.3333C94.7917 60.0417 93.375 61.4583 91.6667 61.4583ZM79.1667 40.625C78.5833 40.625 78.125 41.0833 78.125 41.6667V54.1667C78.125 54.75 78.5833 55.2083 79.1667 55.2083H88.5417V50.8334L82.7082 40.625H79.1667Z" fill="#0D6EFD"/>
<path d="M33.3333 36.4583H8.33325C6.62492 36.4583 5.20825 35.0417 5.20825 33.3333C5.20825 31.625 6.62492 30.2083 8.33325 30.2083H33.3333C35.0416 30.2083 36.4583 31.625 36.4583 33.3333C36.4583 35.0417 35.0416 36.4583 33.3333 36.4583Z" fill="#0D6EFD"/>
<path d="M24.9999 48.9583H8.33325C6.62492 48.9583 5.20825 47.5417 5.20825 45.8333C5.20825 44.125 6.62492 42.7083 8.33325 42.7083H24.9999C26.7083 42.7083 28.1249 44.125 28.1249 45.8333C28.1249 47.5417 26.7083 48.9583 24.9999 48.9583Z" fill="#0D6EFD"/>
<path d="M16.6666 61.4583H8.33325C6.62492 61.4583 5.20825 60.0417 5.20825 58.3333C5.20825 56.625 6.62492 55.2083 8.33325 55.2083H16.6666C18.3749 55.2083 19.7916 56.625 19.7916 58.3333C19.7916 60.0417 18.3749 61.4583 16.6666 61.4583Z" fill="#0D6EFD"/>
</svg>
