<svg width="100" height="100" viewBox="0 0 100 100" fill="none" xmlns="http://www.w3.org/2000/svg">
<path d="M50.0001 5.20834C74.7084 5.20834 94.7918 25.2917 94.7918 50C94.7917 74.7083 74.7084 94.7917 50.0001 94.7917C25.2917 94.7917 5.20842 74.7083 5.20842 50C5.20843 25.2917 25.2918 5.20834 50.0001 5.20834ZM50.0001 88.5417C71.2501 88.5417 88.5418 71.25 88.5418 50C88.5418 28.75 71.2501 11.4583 50.0001 11.4583C28.7501 11.4583 11.4584 28.75 11.4584 50C11.4584 71.25 28.7501 88.5417 50.0001 88.5417Z" fill="#0D6EFD"/>
<path d="M50 42.7083C51.7083 42.7083 53.125 44.125 53.125 45.8333L53.125 66.6667C53.125 68.375 51.7083 69.7917 50 69.7917C48.2917 69.7917 46.875 68.375 46.875 66.6667L46.875 45.8333C46.875 44.125 48.2917 42.7083 50 42.7083Z" fill="#0D6EFD"/>
<path d="M50.0001 29.1672C50.5417 29.1672 51.0834 29.2922 51.5834 29.5005C52.0834 29.7088 52.5417 30.0005 52.9584 30.3755C53.3334 30.7922 53.6251 31.2088 53.8334 31.7505C54.0417 32.2505 54.1667 32.7922 54.1667 33.3338C54.1667 33.8755 54.0417 34.4172 53.8334 34.9172C53.6251 35.4172 53.3334 35.8755 52.9584 36.2922C52.5417 36.6672 52.0834 36.9588 51.5834 37.1672C50.5834 37.5838 49.4167 37.5838 48.4167 37.1672C47.9167 36.9588 47.4584 36.6672 47.0417 36.2922C46.6667 35.8755 46.3751 35.4172 46.1667 34.9172C45.9584 34.4172 45.8334 33.8755 45.8334 33.3338C45.8334 32.7922 45.9584 32.2505 46.1667 31.7505C46.3751 31.2088 46.6667 30.7922 47.0417 30.3755C47.4584 30.0005 47.9167 29.7088 48.4167 29.5005C48.9167 29.2922 49.4584 29.1672 50.0001 29.1672Z" fill="#0D6EFD"/>
</svg>
