<svg width="100" height="100" viewBox="0 0 100 100" fill="none" xmlns="http://www.w3.org/2000/svg">
<path d="M50 56.25C46.9097 56.25 43.8887 55.3336 41.3192 53.6167C38.7497 51.8998 36.747 49.4595 35.5644 46.6044C34.3818 43.7493 34.0723 40.6077 34.6752 37.5767C35.2781 34.5458 36.7663 31.7617 38.9515 29.5765C41.1367 27.3913 43.9208 25.9031 46.9517 25.3002C49.9827 24.6973 53.1243 25.0068 55.9794 26.1894C58.8345 27.372 61.2748 29.3747 62.9917 31.9442C64.7086 34.5137 65.625 37.5347 65.625 40.625C65.62 44.7675 63.9723 48.7389 61.0431 51.6681C58.1139 54.5973 54.1425 56.245 50 56.25ZM50 31.25C48.1458 31.25 46.3332 31.7998 44.7915 32.83C43.2498 33.8601 42.0482 35.3243 41.3386 37.0374C40.6291 38.7504 40.4434 40.6354 40.8051 42.454C41.1669 44.2726 42.0598 45.943 43.3709 47.2541C44.682 48.5653 46.3525 49.4581 48.171 49.8199C49.9896 50.1816 51.8746 49.996 53.5877 49.2864C55.3007 48.5768 56.7649 47.3752 57.795 45.8335C58.8252 44.2918 59.375 42.4792 59.375 40.625C59.3725 38.1394 58.384 35.7562 56.6264 33.9986C54.8688 32.241 52.4857 31.2525 50 31.25Z" fill="#0D6EFD"/>
<path d="M50 93.75L23.6375 62.6594C23.2712 62.1925 22.9087 61.7227 22.55 61.25C18.0491 55.3169 15.6166 48.0722 15.625 40.625C15.625 31.5082 19.2467 22.7648 25.6932 16.3182C32.1398 9.87164 40.8832 6.25 50 6.25C59.1168 6.25 67.8603 9.87164 74.3068 16.3182C80.7534 22.7648 84.375 31.5082 84.375 40.625C84.3823 48.0686 81.951 55.3097 77.4531 61.2406L77.45 61.25C77.45 61.25 76.5125 62.4813 76.3719 62.6469L50 93.75ZM27.5406 57.4844C27.5406 57.4844 28.2688 58.4469 28.4344 58.6531L50 84.0875L71.5938 58.6187C71.7313 58.4469 72.4625 57.4781 72.4656 57.475C76.1444 52.6286 78.1325 46.7095 78.125 40.625C78.125 33.1658 75.1619 26.0121 69.8874 20.7376C64.6129 15.4632 57.4592 12.5 50 12.5C42.5408 12.5 35.3871 15.4632 30.1126 20.7376C24.8382 26.0121 21.875 33.1658 21.875 40.625C21.8673 46.7134 23.8577 52.6362 27.5406 57.4844Z" fill="#0D6EFD"/>
</svg>
