<svg width="101" height="100" viewBox="0 0 101 100" fill="none" xmlns="http://www.w3.org/2000/svg">
<path d="M66.7429 3.03027H34.0304C26.6278 3.03027 20.6033 9.0589 20.6033 16.4574V83.5425C20.6033 90.9452 26.6319 96.9697 34.0304 96.9697H66.7429C74.1455 96.9697 80.17 90.941 80.17 83.5425V16.4574C80.17 9.05477 74.1414 3.03027 66.7429 3.03027ZM75.5867 83.5552C75.5867 88.438 71.6214 92.399 66.7429 92.399H34.0304C29.1475 92.399 25.1865 88.4337 25.1865 83.5552V16.4574C25.1865 11.5745 29.1519 7.61353 34.0304 7.61353H34.6614C34.4645 7.95815 34.3392 8.3341 34.3392 8.75928C34.3392 10.0214 35.3686 11.0508 36.6307 11.0508H64.1289C65.391 11.0508 66.4204 10.0214 66.4204 8.75928C66.4204 8.3341 66.2951 7.95815 66.0981 7.61353H66.7292C71.6121 7.61353 75.5731 11.5789 75.5731 16.4574V83.5425L75.5867 83.5552Z" fill="#0D6EFD"/>
<path d="M60.692 82.6601H40.0684C38.8062 82.6601 37.7769 83.6895 37.7769 84.9516C37.7769 86.2138 38.8062 87.2431 40.0684 87.2431H60.692C61.9541 87.2431 62.9835 86.2138 62.9835 84.9516C62.9835 83.6895 61.9541 82.6601 60.692 82.6601Z" fill="#0D6EFD"/>
</svg>
