<svg width="1440" height="705" viewBox="0 0 1440 705" fill="none" xmlns="http://www.w3.org/2000/svg">
<path d="M1424.29 69.4775C1395.23 120.171 1279.21 215.112 1047.64 189.329C758.162 157.1 656.676 212.493 647.14 374.141C637.604 535.789 564.044 634.49 280.02 598.233C-4.00494 561.975 -24.4384 663.194 -13.5406 773.477" stroke="#0D6EFD"/>
<path d="M821.791 15.4775C755.791 -7.52247 556.367 -125.88 431.791 137.478C374.791 257.977 119.291 55.9774 103.291 235.477C87.291 348.977 139.591 409.777 12.791 394.977C-114.009 380.177 -45.209 520.144 -13.709 561.977" stroke="#92BEFF"/>
<path d="M1418.33 68.9429C1388.9 118.907 1272.06 211.736 1041.54 188.815C754.366 158.099 651.355 210.944 641.755 372.768C632.156 533.94 559.842 632.265 277.374 596.22C-5.09407 560.175 -24.644 661.778 -13.5422 771.383" stroke="#0E6FFD"/>
<path d="M1412.36 68.4081C1382.57 117.642 1264.9 208.359 1035.44 188.302C750.57 159.097 646.034 209.394 636.371 371.395C626.707 532.09 555.639 630.04 274.728 594.208C-6.18324 558.375 -24.8497 660.361 -13.5439 769.289" stroke="#1070FD"/>
<path d="M1406.4 67.8735C1376.24 116.378 1257.74 204.983 1029.34 187.788C746.774 160.096 640.714 207.844 630.986 370.022C621.258 530.24 551.437 627.816 272.082 592.195C-7.27232 556.575 -25.0553 658.945 -13.5455 767.195" stroke="#1170FD"/>
<path d="M1400.43 67.3389C1369.91 115.114 1250.59 201.607 1023.25 187.275C742.979 161.095 635.393 206.295 625.601 368.65C615.81 528.391 547.234 625.591 269.436 590.183C-8.36152 554.775 -25.261 657.529 -13.5472 765.101" stroke="#1271FD"/>
<path d="M1394.46 66.8044C1363.57 113.85 1243.43 198.231 1017.15 186.762C739.183 162.094 630.072 204.745 620.217 367.277C610.361 526.541 543.032 623.366 266.791 588.171C-9.4506 552.975 -25.4666 656.113 -13.5488 763.007" stroke="#1472FD"/>
<path d="M1388.5 66.2695C1357.24 112.585 1236.27 194.855 1011.05 186.248C735.387 163.092 624.752 203.195 614.832 365.904C604.913 524.691 538.829 621.141 264.145 586.158C-10.5398 551.175 -25.6722 654.696 -13.5505 760.913" stroke="#1573FD"/>
<path d="M1382.53 65.7349C1350.91 111.321 1229.12 191.479 1004.95 185.735C731.591 164.091 619.431 201.646 609.448 364.531C599.464 522.842 534.627 618.916 261.499 584.146C-11.6289 549.375 -25.8778 653.28 -13.5521 758.819" stroke="#1674FD"/>
<path d="M1376.57 65.2003C1344.58 110.057 1221.96 188.103 998.855 185.222C727.796 165.09 614.111 200.096 604.063 363.158C594.015 520.992 530.424 616.691 258.853 582.133C-12.7181 547.575 -26.0835 651.864 -13.5538 756.725" stroke="#1874FD"/>
<path d="M1370.6 64.6658C1338.25 108.792 1214.8 184.726 992.758 184.708C724 166.089 608.79 198.546 598.678 361.785C588.567 519.143 526.222 614.466 256.207 580.121C-13.8071 545.776 -26.2891 650.447 -13.5554 754.631" stroke="#1975FD"/>
<path d="M1364.64 64.1309C1331.92 107.528 1207.64 181.35 986.661 184.195C720.204 167.088 603.469 196.997 593.294 360.412C583.118 517.293 522.019 612.241 253.561 578.108C-14.8963 543.975 -26.4948 649.031 -13.5571 752.537" stroke="#1A76FD"/>
<path d="M1358.67 63.5963C1325.59 106.264 1200.49 177.974 980.563 183.681C716.409 168.086 598.149 195.447 587.909 359.039C577.669 515.443 517.817 610.017 250.916 576.096C-15.9854 542.175 -26.7003 647.614 -13.5587 750.443" stroke="#1C77FD"/>
<path d="M1352.71 63.0618C1319.26 104.999 1193.33 174.598 974.466 183.168C712.613 169.085 592.828 193.897 582.524 357.666C572.221 513.594 513.614 607.792 248.27 574.084C-17.0746 540.376 -26.906 646.198 -13.5604 748.349" stroke="#1D78FD"/>
<path d="M1346.74 62.5272C1312.93 103.735 1186.17 171.222 968.368 182.655C708.817 170.084 587.507 192.348 577.14 356.294C566.772 511.744 509.412 605.567 245.624 572.071C-18.1637 538.576 -27.1117 644.782 -13.5621 746.255" stroke="#1E78FD"/>
<path d="M1340.78 61.9923C1306.6 102.471 1179.02 167.846 962.271 182.141C705.021 171.083 582.187 190.798 571.755 354.92C561.324 509.894 505.209 603.342 242.978 570.059C-19.2529 536.775 -27.3173 643.365 -13.5637 744.161" stroke="#1F79FD"/>
<path d="M1334.81 61.4578C1300.26 101.207 1171.86 164.469 956.173 181.628C701.226 172.082 576.866 189.248 566.371 353.548C555.875 508.045 501.007 601.117 240.332 568.046C-20.3419 534.976 -27.523 641.949 -13.5654 742.067" stroke="#217AFD"/>
<path d="M1328.85 60.9232C1293.93 99.9423 1164.7 161.093 950.076 181.115C697.43 173.08 571.546 187.699 560.986 352.175C550.426 506.195 496.804 598.892 237.687 566.034C-21.4311 533.176 -27.7285 640.533 -13.567 739.973" stroke="#227BFD"/>
<path d="M1322.88 60.3883C1287.6 98.6778 1157.55 157.717 943.978 180.601C693.634 174.079 566.224 186.149 555.601 350.802C544.977 504.346 492.601 596.667 235.04 564.021C-22.5207 531.375 -27.9347 639.116 -13.5692 737.878" stroke="#237CFD"/>
<path d="M1316.91 59.8538C1281.27 97.4137 1150.39 154.341 937.88 180.088C689.838 175.078 560.904 184.599 550.216 349.429C539.529 502.496 488.399 594.442 232.394 562.009C-23.6099 529.576 -28.1403 637.7 -13.5708 735.784" stroke="#257CFD"/>
<path d="M1310.95 59.3192C1274.94 96.1494 1143.23 150.965 931.783 179.574C686.042 176.077 555.583 183.05 544.832 348.056C534.08 500.646 484.196 592.218 229.749 559.997C-24.699 527.776 -28.346 636.284 -13.5725 733.69" stroke="#267DFD"/>
<path d="M1304.98 58.7845C1268.61 94.8852 1136.08 147.589 925.686 179.061C682.246 177.076 550.263 181.5 539.447 346.683C528.631 498.797 479.994 589.993 227.103 557.984C-25.7882 525.976 -28.5516 634.868 -13.5741 731.596" stroke="#277EFD"/>
<path d="M1299.02 58.2497C1262.28 93.6207 1128.92 144.212 919.588 178.548C678.451 178.074 544.942 179.95 534.062 345.31C523.183 496.947 475.791 587.768 224.457 555.972C-26.8772 524.176 -28.7572 633.451 -13.5758 729.502" stroke="#297FFD"/>
<path d="M1293.05 57.7151C1255.95 92.3565 1121.76 140.836 913.491 178.034C674.655 179.073 539.621 178.401 528.678 343.937C517.734 495.098 471.589 585.543 221.811 553.959C-27.9664 522.376 -28.9628 632.035 -13.5774 727.408" stroke="#2A7FFD"/>
<path d="M1287.09 57.1805C1249.62 91.0922 1114.6 137.46 907.393 177.521C670.859 180.072 534.301 176.851 523.293 342.564C512.285 493.248 467.386 583.318 219.165 551.947C-29.0555 520.576 -29.1685 630.618 -13.5791 725.314" stroke="#2B80FD"/>
<path d="M1281.12 56.6459C1243.28 89.828 1107.45 134.084 901.296 177.008C667.063 181.071 528.98 175.301 517.908 341.192C506.837 491.398 463.184 581.093 216.52 549.935C-30.1447 518.776 -29.3741 629.202 -13.5807 723.22" stroke="#2D81FD"/>
<path d="M1275.16 56.1111C1236.95 88.5636 1100.29 130.708 895.198 176.494C663.268 182.069 523.659 173.752 512.524 339.818C501.388 489.549 458.981 578.868 213.874 547.922C-31.2338 516.976 -29.5798 627.786 -13.5824 721.126" stroke="#2E82FD"/>
<path d="M1269.19 55.5765C1230.62 87.2993 1093.13 127.332 889.101 175.981C659.472 183.068 518.339 172.202 507.139 338.446C495.939 487.699 454.779 576.643 211.228 545.91C-32.323 515.176 -29.7855 626.369 -13.5841 719.032" stroke="#2F83FE"/>
<path d="M1263.23 55.0419C1224.29 86.0351 1085.98 123.956 883.003 175.467C655.676 184.067 513.018 170.652 501.755 337.073C490.491 485.85 450.576 574.419 208.582 543.897C-33.412 513.376 -29.991 624.953 -13.5857 716.938" stroke="#3183FE"/>
<path d="M1257.26 54.5074C1217.96 84.7709 1078.82 120.58 876.906 174.954C651.881 185.066 507.698 169.103 496.37 335.7C485.042 484 446.374 572.194 205.936 541.885C-34.5012 511.576 -30.1967 623.537 -13.5874 714.844" stroke="#3284FE"/>
<path d="M1251.3 53.9725C1211.63 83.5064 1071.66 117.203 870.808 174.441C648.085 186.065 502.377 167.553 490.985 334.327C479.594 482.15 442.171 569.969 203.291 539.872C-35.5903 509.776 -30.4023 622.12 -13.589 712.75" stroke="#3385FE"/>
<path d="M1245.33 53.4379C1205.3 82.2422 1064.51 113.827 864.711 173.927C644.289 187.063 497.056 166.003 485.601 332.954C474.145 480.301 437.969 567.744 200.645 537.86C-36.6795 507.976 -30.608 620.704 -13.5907 710.656" stroke="#3586FE"/>
<path d="M1239.37 52.9034C1198.97 80.978 1057.35 110.451 858.614 173.414C640.493 188.062 491.736 164.454 480.216 331.581C468.696 478.451 433.766 565.519 197.999 535.848C-37.7686 506.176 -30.8135 619.288 -13.5923 708.562" stroke="#3687FE"/>
<path d="M1233.4 52.3685C1192.64 79.7135 1050.19 107.075 852.516 172.9C636.698 189.061 486.415 162.904 474.831 330.208C463.248 476.601 429.564 563.294 195.353 533.835C-38.8578 504.376 -31.0192 617.871 -13.594 706.467" stroke="#3787FE"/>
<path d="M1227.43 51.8339C1186.3 78.4493 1043.04 103.699 846.419 172.387C632.902 190.06 481.094 161.354 469.447 328.835C457.799 474.752 425.361 561.069 192.707 531.823C-39.9469 502.576 -31.2248 616.455 -13.5956 704.373" stroke="#3988FE"/>
<path d="M1221.47 51.2993C1179.97 77.185 1035.88 100.323 840.321 171.874C629.106 191.059 475.774 159.805 464.062 327.462C452.35 472.902 421.159 558.844 190.061 529.81C-41.036 500.776 -31.4305 615.039 -13.5973 702.279" stroke="#3A89FE"/>
<path d="M1215.5 50.7648C1173.64 75.9208 1028.72 96.9464 834.224 171.361C625.31 192.057 470.453 158.255 458.678 326.09C446.902 471.053 416.956 556.62 187.416 527.798C-42.1251 498.976 -31.6361 613.622 -13.5989 700.185" stroke="#3B8AFE"/>
<path d="M1209.54 50.2299C1167.31 74.6563 1021.57 93.5701 828.126 170.847C621.515 193.056 465.133 156.705 453.293 324.716C441.453 469.203 412.754 554.395 184.77 525.785C-43.2143 497.176 -31.8418 612.206 -13.6006 698.091" stroke="#3D8BFE"/>
<path d="M1203.57 49.6953C1160.98 73.3921 1014.41 90.194 822.029 170.334C617.719 194.055 459.812 155.156 447.908 323.344C436.004 467.353 408.551 552.17 182.124 523.773C-44.3034 495.376 -32.0473 610.79 -13.6022 695.997" stroke="#3E8BFE"/>
<path d="M1197.61 49.1608C1154.65 72.1279 1007.25 86.8179 815.931 169.82C613.923 195.054 454.491 153.606 442.524 321.971C430.556 465.504 404.349 549.945 179.478 521.761C-45.3926 493.576 -32.253 609.373 -13.6039 693.903" stroke="#3F8CFE"/>
<path d="M1191.64 48.6262C1148.32 70.8637 1000.09 83.4418 809.834 169.307C610.127 196.053 449.171 152.056 437.139 320.598C425.107 463.654 400.146 547.72 176.832 519.748C-46.4817 491.776 -32.4587 607.957 -13.6056 691.809" stroke="#408DFE"/>
<path d="M1185.68 48.0913C1141.99 69.5992 992.938 80.0655 803.737 168.793C606.332 197.051 443.85 150.507 431.754 319.225C419.659 461.804 395.944 545.495 174.187 517.736C-47.5708 489.976 -32.6643 606.541 -13.6072 689.715" stroke="#428EFE"/>
<path d="M1179.71 47.5568C1135.66 68.335 985.781 76.6894 797.639 168.28C602.536 198.05 438.529 148.957 426.37 317.852C414.21 459.955 391.741 543.27 171.541 515.723C-48.66 488.176 -32.87 605.124 -13.6089 687.621" stroke="#438FFE"/>
<path d="M1173.75 47.0222C1129.32 67.0708 978.624 73.3133 791.542 167.767C598.74 199.049 433.209 147.407 420.985 316.479C408.761 458.105 387.539 541.045 168.895 513.711C-49.7491 486.376 -33.0755 603.708 -13.6105 685.527" stroke="#448FFE"/>
<path d="M1167.78 46.4875C1122.99 65.8065 971.467 69.9372 785.444 167.254C594.944 200.048 427.888 145.858 415.6 315.106C403.312 456.256 383.336 538.821 166.249 511.698C-50.8385 484.576 -33.2815 602.292 -13.6124 683.433" stroke="#4690FE"/>
<path d="M1161.82 45.9528C1116.66 64.5421 964.31 66.5609 779.346 166.74C591.149 201.046 422.567 144.308 410.216 313.733C397.864 454.406 379.134 536.596 163.603 509.686C-51.9276 482.776 -33.487 600.875 -13.614 681.339" stroke="#4791FE"/>
<path d="M1155.85 45.4182C1110.33 63.2778 957.153 63.1848 773.249 166.227C587.353 202.045 417.247 142.758 404.831 312.36C392.415 452.556 374.931 534.371 160.957 507.673C-53.0168 480.976 -33.6927 599.459 -13.6157 679.245" stroke="#4892FE"/>
<path d="M1149.89 44.8835C1104 62.0136 949.996 59.8087 767.152 165.713C583.557 203.044 411.926 141.209 399.446 310.987C386.967 450.707 370.729 532.146 158.311 505.661C-54.1059 479.176 -33.8983 598.043 -13.6173 677.151" stroke="#4A93FE"/>
<path d="M1143.92 44.3487C1097.67 60.7491 942.839 56.4324 761.054 165.2C579.761 204.043 406.606 139.659 394.062 309.614C381.518 448.857 366.526 529.921 155.666 503.649C-55.195 477.376 -34.104 596.626 -13.619 675.057" stroke="#4B93FE"/>
<path d="M1137.95 43.8141C1091.34 59.4849 935.683 53.0563 754.957 164.686C575.966 205.042 401.285 138.109 388.677 308.242C376.069 447.007 362.324 527.696 153.02 501.636C-56.2842 475.576 -34.3096 595.21 -13.6206 672.963" stroke="#4C94FE"/>
<path d="M1131.99 43.2795C1085.01 58.2207 928.526 49.6802 748.859 164.173C572.17 206.04 395.964 136.56 383.292 306.869C370.621 445.158 358.121 525.471 150.374 499.624C-57.3733 473.776 -34.5152 593.794 -13.6223 670.869" stroke="#4E95FE"/>
<path d="M1126.02 42.7449C1078.68 56.9564 921.369 46.3041 742.762 163.66C568.374 207.039 390.644 135.01 377.908 305.496C365.172 443.308 353.919 523.246 147.728 497.611C-58.4624 471.976 -34.7209 592.377 -13.624 668.775" stroke="#4F96FE"/>
<path d="M1120.06 42.2101C1072.35 55.692 914.212 42.9278 736.664 163.146C564.578 208.038 385.323 133.46 372.523 304.123C359.723 441.458 349.716 521.021 145.082 495.599C-59.5515 470.176 -34.9265 590.961 -13.6256 666.68" stroke="#5097FE"/>
<path d="M1114.09 41.6755C1066.01 54.4278 907.055 39.5517 730.567 162.633C560.783 209.037 380.002 131.911 367.139 302.75C354.275 439.609 345.514 518.797 142.437 493.586C-60.6407 468.376 -35.1322 589.545 -13.6273 664.586" stroke="#5297FE"/>
<path d="M1108.13 41.1409C1059.68 53.1635 899.898 36.1756 724.469 162.12C556.987 210.036 374.682 130.361 361.754 301.377C348.826 437.759 341.311 516.572 139.791 491.574C-61.7298 466.576 -35.3378 588.128 -13.6289 662.492" stroke="#5398FE"/>
<path d="M1102.16 40.6064C1053.35 51.8993 892.741 32.7995 718.372 161.606C553.191 211.034 369.361 128.812 356.369 300.004C343.377 435.91 337.109 514.347 137.145 489.562C-62.8189 464.777 -35.5435 586.712 -13.6306 660.398" stroke="#5499FE"/>
<path d="M1096.2 40.0715C1047.02 50.6348 885.584 29.4232 712.275 161.093C549.396 212.033 364.041 127.262 350.985 298.631C337.929 434.06 332.906 512.122 134.499 487.549C-63.908 462.976 -35.749 585.296 -13.6322 658.304" stroke="#569AFE"/>
<path d="M1090.23 39.5369C1040.69 49.3706 878.427 26.0471 706.177 160.579C545.6 213.032 358.72 125.712 345.6 297.258C332.48 432.21 328.704 509.897 131.853 485.537C-64.9972 461.176 -35.9547 583.879 -13.6339 656.21" stroke="#579BFE"/>
<path d="M1084.27 39.0023C1034.36 48.1064 871.271 22.671 700.08 160.066C541.804 214.031 353.399 124.163 340.215 295.885C327.032 430.361 324.501 507.672 129.208 483.524C-66.0863 459.377 -36.1603 582.463 -13.6355 654.116" stroke="#589BFE"/>
<path d="M1078.3 38.4675C1028.03 46.8419 864.114 19.2946 693.982 159.553C538.008 215.029 348.079 122.613 334.831 294.512C321.583 428.511 320.299 505.447 126.562 481.512C-67.1755 457.576 -36.366 581.047 -13.6372 652.022" stroke="#5A9CFE"/>
<path d="M1072.34 37.9329C1021.7 45.5777 856.957 15.9186 687.884 159.039C534.212 216.028 342.758 121.063 329.446 293.14C316.134 426.661 316.096 503.222 123.916 479.499C-68.2648 455.776 -36.5718 579.63 -13.639 649.928" stroke="#5B9DFE"/>
<path d="M1066.37 37.3983C1015.37 44.3134 849.8 12.5425 681.787 158.526C530.417 217.027 337.437 119.513 324.061 291.767C310.685 424.812 311.894 500.998 121.27 477.487C-69.354 453.977 -36.7775 578.214 -13.6407 647.834" stroke="#5C9EFE"/>
<path d="M1060.4 36.8638C1009.03 43.0493 842.643 9.16639 675.69 158.013C526.621 218.026 332.117 117.964 318.677 290.394C305.237 422.962 307.691 498.773 118.624 475.475C-70.4431 452.177 -36.9831 576.798 -13.6423 645.74" stroke="#5E9EFE"/>
<path d="M1054.44 36.3289C1002.7 41.7848 835.486 5.79007 669.592 157.499C522.825 219.025 326.796 116.414 313.292 289.021C299.788 421.113 303.489 496.548 115.978 473.462C-71.5322 450.376 -37.1887 575.381 -13.644 643.646" stroke="#5F9FFE"/>
<path d="M1048.47 35.7943C996.372 40.5205 828.329 2.41395 663.495 156.986C519.029 220.023 321.475 114.864 307.907 287.648C294.34 419.263 299.286 494.323 113.332 471.45C-72.6214 448.577 -37.3944 573.965 -13.6458 641.552" stroke="#60A0FE"/>
<path d="M1042.51 35.2598C990.041 39.2563 821.172 -0.962132 657.397 156.473C515.234 221.022 316.155 113.315 302.523 286.275C288.891 417.413 295.084 492.098 110.687 469.437C-73.7105 446.777 -37.6 572.549 -13.6473 639.458" stroke="#62A1FE"/>
<path d="M1036.54 34.7252C983.71 37.9921 814.015 -4.33822 651.3 155.959C511.438 222.021 310.834 111.765 297.138 284.902C283.442 415.564 290.881 489.873 108.041 467.425C-74.7996 444.977 -37.8057 571.132 -13.649 637.364" stroke="#63A2FE"/>
<path d="M1030.58 34.1903C977.379 36.7276 806.858 -7.71454 645.202 155.446C507.642 223.02 305.513 110.215 291.754 283.529C277.994 413.714 286.679 487.648 105.395 465.412C-75.8888 443.177 -38.0113 569.716 -13.6506 635.269" stroke="#64A2FE"/>
<path d="M1024.61 33.6558C971.048 35.4634 799.701 -11.0906 639.105 154.932C503.846 224.019 300.193 108.666 286.369 282.156C272.545 411.865 282.476 485.423 102.749 463.4C-76.9779 441.377 -38.217 568.3 -13.6523 633.175" stroke="#65A3FE"/>
<path d="M1018.65 33.1212C964.717 34.1992 792.545 -14.4667 633.007 154.419C500.051 225.017 294.872 107.116 280.984 280.783C267.096 410.015 278.274 483.199 100.103 461.388C-78.067 439.577 -38.4225 566.883 -13.6539 631.081" stroke="#67A4FE"/>
<path d="M1012.68 32.5865C958.386 32.9349 785.388 -17.8428 626.91 153.906C496.255 226.016 289.552 105.567 275.6 279.411C261.648 408.165 274.071 480.974 97.4575 459.375C-79.1562 437.777 -38.6282 565.467 -13.6556 628.987" stroke="#68A5FE"/>
<path d="M1006.72 32.0517C952.055 31.6704 778.231 -21.2192 620.813 153.392C492.459 227.015 284.231 104.017 270.215 278.038C256.199 406.316 269.869 478.749 94.8117 457.363C-80.2453 435.977 -38.8338 564.051 -13.6573 626.893" stroke="#69A6FE"/>
<path d="M1000.75 31.5172C945.724 30.4063 771.074 -24.5952 614.715 152.879C488.664 228.014 278.91 102.467 264.83 276.665C250.751 404.466 265.666 476.524 92.1659 455.35C-81.3344 434.177 -39.0395 562.634 -13.6589 624.799" stroke="#6BA6FE"/>
<path d="M994.786 30.9825C939.392 29.142 763.917 -27.9713 608.618 152.366C484.868 229.013 273.59 100.918 259.446 275.292C245.302 402.616 261.464 474.299 89.5201 453.338C-82.4236 432.377 -39.2451 561.218 -13.6606 622.705" stroke="#6CA7FE"/>
<path d="M988.821 30.4477C933.061 27.8775 756.76 -31.3477 602.52 151.852C481.072 230.011 268.269 99.3678 254.061 273.919C239.853 400.767 257.261 472.074 86.8743 451.325C-83.5127 430.577 -39.4507 559.801 -13.6622 620.611" stroke="#6DA8FE"/>
<path d="M982.856 29.9131C926.73 26.6133 749.603 -34.7238 596.423 151.339C477.276 231.01 262.948 97.8182 248.676 272.546C234.405 398.917 253.059 469.849 84.2285 449.313C-84.6019 428.777 -39.6564 558.385 -13.6639 618.517" stroke="#6FA9FE"/>
<path d="M976.89 29.3785C920.399 25.3491 742.446 -38.0998 590.325 150.825C473.481 232.009 257.628 96.2686 243.292 271.173C228.956 397.068 248.856 467.624 81.5827 447.301C-85.691 426.977 -39.862 556.969 -13.6655 616.423" stroke="#70AAFE"/>
<path d="M970.925 28.8439C914.068 24.0849 735.289 -41.4759 584.228 150.312C469.685 233.008 252.307 94.719 237.907 269.8C223.507 395.218 244.654 465.4 78.9366 445.288C-86.7804 425.177 -40.0679 555.553 -13.6674 614.329" stroke="#71AAFF"/>
<path d="M964.959 28.3091C907.737 22.8204 728.132 -44.8523 578.13 149.798C465.889 234.006 246.986 93.1691 232.522 268.427C218.058 393.368 240.451 463.174 76.2908 443.276C-87.8695 423.377 -40.2735 554.136 -13.6691 612.235" stroke="#73ABFF"/>
<path d="M958.994 27.7745C901.406 21.5562 720.975 -48.2284 572.033 149.285C462.093 235.005 241.666 91.6196 227.138 267.054C212.61 391.519 236.249 460.95 73.645 441.263C-88.9586 421.577 -40.4791 552.72 -13.6707 610.141" stroke="#74ACFF"/>
<path d="M953.029 27.2399C895.075 20.2919 713.819 -51.6045 565.935 148.772C458.297 236.004 236.345 90.0699 221.753 265.681C207.161 389.669 232.046 458.725 70.9992 439.251C-90.0478 419.777 -40.6848 551.304 -13.6724 608.047" stroke="#75ADFF"/>
<path d="M947.063 26.7054C888.744 19.0278 706.662 -54.9805 559.838 148.259C454.502 237.003 231.024 88.5204 216.368 264.309C201.713 387.82 227.844 456.5 68.3533 437.239C-91.1369 417.977 -40.8904 549.887 -13.674 605.953" stroke="#77AEFF"/>
<path d="M941.098 26.1705C882.413 17.7633 699.505 -58.3569 553.74 147.745C450.706 238.002 225.704 86.9705 210.984 262.935C196.264 385.97 223.641 454.275 65.7075 435.226C-92.226 416.177 -41.096 548.471 -13.6757 603.859" stroke="#78AEFF"/>
<path d="M935.133 25.6359C876.082 16.499 692.348 -61.733 547.643 147.232C446.91 239 220.383 85.4209 205.599 261.563C190.815 384.12 219.439 452.05 63.0617 433.214C-93.3152 414.377 -41.3017 547.055 -13.6774 601.765" stroke="#79AFFF"/>
<path d="M929.167 25.1013C869.751 15.2348 685.191 -65.1091 541.545 146.718C443.114 239.999 215.063 83.8713 200.215 260.19C185.367 382.271 215.236 449.825 60.4159 431.201C-94.4043 412.577 -41.5073 545.638 -13.679 599.671" stroke="#7BB0FF"/>
<path d="M923.202 24.5668C863.419 13.9706 678.034 -68.4851 535.448 146.205C439.319 240.998 209.742 82.3217 194.83 258.817C179.918 380.421 211.034 447.601 57.7701 429.189C-95.4934 410.777 -41.713 544.222 -13.6807 597.577" stroke="#7CB1FF"/>
<path d="M917.237 24.0319C857.088 12.7061 670.877 -71.8615 529.351 145.691C435.523 241.997 204.421 80.7719 189.445 257.444C174.469 378.571 206.831 445.375 55.1243 427.176C-96.5826 408.977 -41.9186 542.805 -13.6823 595.482" stroke="#7DB2FF"/>
<path d="M911.271 23.4973C850.757 11.4419 663.72 -75.2376 523.253 145.178C431.727 242.996 199.101 79.2223 184.061 256.071C169.021 376.722 202.629 443.151 52.4785 425.164C-97.6717 407.177 -42.1242 541.389 -13.684 593.388" stroke="#7FB2FF"/>
<path d="M905.306 22.9628C844.426 10.1777 656.564 -78.6137 517.156 144.665C427.932 243.995 193.78 77.6727 178.676 254.698C163.572 374.872 198.426 440.926 49.8327 423.152C-98.7608 405.377 -42.3299 539.973 -13.6856 591.294" stroke="#80B3FF"/>
<path d="M899.341 22.4279C838.095 8.9132 649.407 -81.99 511.058 144.151C424.136 244.993 188.459 76.1228 173.291 253.325C158.124 373.022 194.224 438.701 47.1868 421.139C-99.85 403.577 -42.5355 538.556 -13.6873 589.2" stroke="#81B4FF"/>
<path d="M893.375 21.8933C831.764 7.64895 642.25 -85.3661 504.961 143.638C420.34 245.992 183.139 74.5732 167.907 251.952C152.675 371.173 190.021 436.476 44.541 419.127C-100.939 401.777 -42.7411 537.14 -13.6889 587.106" stroke="#83B5FF"/>
<path d="M887.41 21.3588C825.433 6.38477 635.093 -88.7422 498.863 143.125C416.544 246.991 177.818 73.0237 162.522 250.579C147.226 369.323 185.819 434.251 41.8952 417.114C-102.028 399.977 -42.9467 535.724 -13.6906 585.012" stroke="#84B6FF"/>
<path d="M881.445 20.8242C819.102 5.12052 627.936 -92.1183 492.766 142.611C412.749 247.99 172.498 71.4741 157.138 249.207C141.778 367.474 181.616 432.026 39.2494 415.102C-103.117 398.177 -43.1524 534.308 -13.6922 582.918" stroke="#85B6FF"/>
<path d="M875.479 20.2893C812.771 3.85604 620.779 -95.4946 486.668 142.098C408.953 248.988 167.177 69.9242 151.753 247.833C136.329 365.624 177.414 429.801 36.6036 413.089C-104.207 396.377 -43.358 532.891 -13.6938 580.824" stroke="#86B7FF"/>
<path d="M869.514 19.7548C806.44 2.59185 613.622 -98.8707 480.571 141.584C405.157 249.987 161.856 68.3746 146.368 246.461C130.88 363.774 173.211 427.576 33.9575 411.077C-105.296 394.577 -43.5639 531.475 -13.6957 578.73" stroke="#88B8FF"/>
<path d="M863.548 19.2202C800.109 1.32761 606.465 -102.247 474.473 141.071C401.361 250.986 156.535 66.825 140.983 245.088C125.431 361.925 169.008 425.352 31.3117 409.065C-106.385 392.777 -43.7695 530.059 -13.6974 576.636" stroke="#89B9FF"/>
<path d="M857.583 18.6855C793.777 0.0633642 599.308 -105.623 468.376 140.558C397.565 251.985 151.215 65.2754 135.599 243.715C119.983 360.075 164.806 423.127 28.6659 407.052C-107.474 390.977 -43.9752 528.642 -13.6991 574.542" stroke="#8ABAFF"/>
<path d="M851.618 18.1507C787.446 -1.20112 592.151 -108.999 462.278 140.044C393.77 252.983 145.894 63.7256 130.214 242.342C114.534 358.225 160.603 420.902 26.0201 405.04C-108.563 389.177 -44.1808 527.226 -13.7007 572.448" stroke="#8CBAFF"/>
<path d="M845.652 17.6161C781.115 -2.46531 584.994 -112.375 456.181 139.531C389.974 253.982 140.574 62.176 124.83 240.969C109.086 356.376 156.401 418.677 23.3743 403.027C-109.652 387.377 -44.3865 525.81 -13.7024 570.354" stroke="#8DBBFF"/>
<path d="M839.687 17.0815C774.784 -3.72955 577.838 -115.751 450.083 139.018C386.178 254.981 135.253 60.6264 119.445 239.596C103.637 354.526 152.198 416.452 20.7285 401.015C-110.742 385.577 -44.5921 524.393 -13.704 568.26" stroke="#8EBCFF"/>
<path d="M833.722 16.5469C768.453 -4.9938 570.681 -119.127 443.986 138.504C382.382 255.98 129.932 59.0768 114.06 238.223C98.1883 352.677 147.996 414.227 18.0827 399.002C-111.831 383.778 -44.7977 522.977 -13.7057 566.166" stroke="#90BDFF"/>
<path d="M827.756 16.0121C762.122 -6.25822 563.524 -122.504 437.888 137.991C378.587 256.979 124.612 57.5269 108.676 236.85C92.7397 350.827 143.794 412.002 15.4368 396.99C-112.92 381.977 -45.0034 521.56 -13.7073 564.071" stroke="#91BDFF"/>
<path d="M1531.72 425.343C1490.52 466.787 1353.89 528.466 1136.87 443.624C865.606 337.572 753.241 364.812 702.193 518.484C651.145 672.156 554.545 748.455 289.583 639.922C24.6202 531.389 -21.3144 623.87 -39.3313 733.216" stroke="#0D6EFD"/>
<path d="M963.722 217.244C905.924 177.946 743.928 12.0068 555.435 234.148C469.189 335.789 274.677 74.5439 212.764 243.786C167.933 349.278 202.715 421.543 84.0662 374.429C-34.5827 327.315 -4.35308 480.319 15.2463 528.88" stroke="#92BEFF"/>
<path d="M1526.09 423.283C1484.74 463.928 1347.85 523.353 1131.12 441.551C861.681 337.555 748.503 361.938 697.347 515.764C646.36 668.959 551.062 745.218 287.548 637.293C24.0339 529.368 -21.1466 622.449 -38.7911 731.193" stroke="#0E6FFD"/>
<path d="M1520.47 421.222C1478.95 461.068 1341.81 518.239 1125.36 439.476C857.756 337.537 743.765 359.064 692.501 513.044C641.576 665.762 547.578 741.981 285.513 634.665C23.4478 527.348 -20.9786 621.028 -38.2506 729.17" stroke="#1070FD"/>
<path d="M1514.85 419.162C1473.16 458.208 1335.77 513.126 1119.6 437.402C853.831 337.519 739.027 356.19 687.656 510.325C636.792 662.566 544.095 738.745 283.478 632.036C22.8619 525.327 -20.8105 619.606 -37.7101 727.147" stroke="#1170FD"/>
<path d="M1509.22 417.101C1467.37 455.348 1329.73 508.012 1113.85 435.328C849.906 337.502 734.288 353.316 682.81 507.605C632.008 659.369 540.611 735.508 281.443 629.407C22.2755 523.307 -20.6427 618.185 -37.1699 725.124" stroke="#1271FD"/>
<path d="M1503.6 415.041C1461.58 452.489 1323.69 502.899 1108.09 433.254C845.982 337.484 729.55 350.442 677.964 504.885C627.223 656.172 537.128 732.271 279.409 626.779C21.6895 521.286 -20.4746 616.764 -36.6293 723.101" stroke="#1472FD"/>
<path d="M1497.97 412.981C1455.8 449.629 1317.65 497.785 1102.33 431.18C842.057 337.466 724.812 347.568 673.118 502.165C622.439 652.975 533.644 729.034 277.374 624.15C21.1032 519.266 -20.3068 615.343 -36.0891 721.078" stroke="#1573FD"/>
<path d="M1492.35 410.92C1450.01 446.769 1311.61 492.672 1096.58 429.106C838.132 337.449 720.074 344.694 668.272 499.446C617.655 649.778 530.161 725.798 275.339 621.522C20.5172 517.245 -20.1387 613.921 -35.5485 719.054" stroke="#1674FD"/>
<path d="M1486.73 408.86C1444.22 443.909 1305.58 487.558 1090.82 427.032C834.207 337.431 715.335 341.821 663.426 496.726C612.871 646.582 526.677 722.561 273.304 618.893C19.9309 515.225 -19.9709 612.5 -35.0083 717.031" stroke="#1874FD"/>
<path d="M1481.1 406.8C1438.43 441.049 1299.54 482.445 1085.06 424.958C830.282 337.414 710.597 338.947 658.581 494.006C608.086 643.385 523.194 719.324 271.27 616.264C19.3449 513.204 -19.8028 611.079 -34.4678 715.008" stroke="#1975FD"/>
<path d="M1475.48 404.739C1432.64 438.189 1293.5 477.331 1079.31 422.884C826.357 337.396 705.859 336.073 653.735 491.286C603.302 640.188 519.711 716.087 269.235 613.635C18.7585 511.184 -19.635 609.657 -33.9276 712.985" stroke="#1A76FD"/>
<path d="M1469.86 402.679C1426.86 435.33 1287.46 472.218 1073.55 420.81C822.432 337.378 701.121 333.199 648.889 488.566C598.518 636.991 516.227 712.851 267.2 611.007C18.1726 509.163 -19.4669 608.236 -33.387 710.962" stroke="#1C77FD"/>
<path d="M1464.23 400.618C1421.07 432.47 1281.42 467.105 1067.79 418.736C818.507 337.361 696.382 330.325 644.043 485.847C593.733 633.794 512.744 709.614 265.165 608.378C17.5862 507.143 -19.2991 606.815 -32.8468 708.939" stroke="#1D78FD"/>
<path d="M1458.61 398.558C1415.28 429.61 1275.38 461.991 1062.04 416.662C814.582 337.343 691.644 327.451 639.197 483.127C588.949 630.598 509.26 706.377 263.13 605.75C17.0002 505.122 -19.1311 605.394 -32.3063 706.916" stroke="#1E78FD"/>
<path d="M1452.98 396.498C1409.49 426.75 1269.34 456.878 1056.28 414.588C810.657 337.325 686.906 324.577 634.351 480.407C584.165 627.401 505.777 703.14 261.095 603.121C16.4139 503.101 -18.9632 603.972 -31.766 704.893" stroke="#1F79FD"/>
<path d="M1447.36 394.437C1403.7 423.89 1263.3 451.764 1050.52 412.514C806.732 337.308 682.168 321.703 629.506 477.687C579.381 624.204 502.293 699.904 259.061 600.492C15.8279 501.081 -18.7952 602.551 -31.2256 702.869" stroke="#217AFD"/>
<path d="M1441.74 392.377C1397.91 421.031 1257.26 446.651 1044.77 410.44C802.807 337.29 677.429 318.829 624.66 474.968C574.596 621.007 498.81 696.667 257.026 597.864C15.2416 499.061 -18.6274 601.13 -30.6853 700.846" stroke="#227BFD"/>
<path d="M1436.11 390.316C1392.13 418.17 1251.22 441.537 1039.01 408.366C798.882 337.272 672.691 315.955 619.814 472.248C569.812 617.81 495.326 693.43 254.991 595.235C14.6551 497.04 -18.4598 599.708 -30.1453 698.823" stroke="#237CFD"/>
<path d="M1430.49 388.256C1386.34 415.311 1245.18 436.424 1033.25 406.292C794.957 337.255 667.952 313.081 614.968 469.528C565.028 614.613 491.843 690.193 252.956 592.606C14.069 495.019 -18.2917 598.287 -29.6047 696.8" stroke="#257CFD"/>
<path d="M1424.87 386.196C1380.55 412.451 1239.14 431.31 1027.49 404.218C791.032 337.237 663.214 310.207 610.122 466.808C560.243 611.417 488.359 686.957 250.921 589.978C13.4828 492.999 -18.1239 596.866 -29.0645 694.777" stroke="#267DFD"/>
<path d="M1419.24 384.135C1374.76 409.591 1233.1 426.197 1021.74 402.144C787.108 337.219 658.476 307.333 605.276 464.088C555.459 608.22 484.876 683.72 248.886 587.349C12.8967 490.978 -17.9558 595.444 -28.524 692.754" stroke="#277EFD"/>
<path d="M1413.62 382.075C1368.97 406.731 1227.07 421.083 1015.98 400.07C783.183 337.202 653.737 304.459 600.43 461.369C550.675 605.023 481.392 680.483 246.851 584.72C12.3105 488.958 -17.7881 594.023 -27.9838 690.73" stroke="#297FFD"/>
<path d="M1407.99 380.014C1363.19 403.871 1221.03 415.97 1010.22 397.996C779.258 337.184 648.999 301.585 595.585 458.649C545.891 601.826 477.909 677.246 244.817 582.092C11.7244 486.937 -17.6199 592.602 -27.4432 688.707" stroke="#2A7FFD"/>
<path d="M1402.37 377.954C1357.4 401.012 1214.99 410.857 1004.47 395.922C775.333 337.166 644.261 298.711 590.739 455.929C541.106 598.629 474.425 674.01 242.782 579.463C11.1381 484.917 -17.4522 591.18 -26.903 686.684" stroke="#2B80FD"/>
<path d="M1396.75 375.894C1351.61 398.152 1208.95 405.743 998.711 393.848C771.408 337.149 639.523 295.837 585.893 453.209C536.322 595.433 470.942 670.773 240.747 576.834C10.552 482.896 -17.284 589.759 -26.3624 684.661" stroke="#2D81FD"/>
<path d="M1391.12 373.833C1345.82 395.292 1202.91 400.63 992.954 391.774C767.483 337.131 634.784 292.963 581.047 450.489C531.538 592.236 467.458 667.536 238.712 574.206C9.9658 480.875 -17.1163 588.338 -25.8222 682.638" stroke="#2E82FD"/>
<path d="M1385.5 371.773C1340.03 392.432 1196.87 395.516 987.197 389.7C763.558 337.113 630.046 290.089 576.201 447.77C526.754 589.039 463.975 664.299 236.677 571.577C9.37971 478.855 -16.9483 586.917 -25.2818 680.615" stroke="#2F83FE"/>
<path d="M1379.88 369.713C1334.25 389.572 1190.83 390.403 981.44 387.626C759.633 337.096 625.308 287.216 571.355 445.05C521.969 585.842 460.491 661.063 234.642 568.949C8.79348 476.834 -16.7804 585.495 -24.7415 678.592" stroke="#3183FE"/>
<path d="M1374.25 367.652C1328.46 386.713 1184.79 385.289 975.683 385.552C755.708 337.078 620.57 284.342 566.51 442.33C517.185 582.645 457.008 657.826 232.608 566.32C8.20739 474.814 -16.6124 584.074 -24.201 676.569" stroke="#3284FE"/>
<path d="M1368.63 365.592C1322.67 383.853 1178.75 380.176 969.926 383.478C751.783 337.06 615.831 281.468 561.664 439.61C512.401 579.448 453.524 654.589 230.573 563.691C7.62116 472.793 -16.4445 582.653 -23.6607 674.545" stroke="#3385FE"/>
<path d="M1363 363.531C1316.88 380.993 1172.71 375.062 964.17 381.404C747.858 337.043 611.093 278.594 556.818 436.891C507.616 576.252 450.041 651.352 228.538 561.063C7.03506 470.773 -16.2765 581.231 -23.1202 672.522" stroke="#3586FE"/>
<path d="M1357.38 361.471C1311.09 378.133 1166.67 369.949 958.413 379.33C743.933 337.025 606.355 275.72 551.972 434.171C502.832 573.055 446.558 648.116 226.503 558.434C6.44883 468.752 -16.1086 579.81 -22.5799 670.499" stroke="#3687FE"/>
<path d="M1351.76 359.411C1305.3 375.273 1160.63 364.835 952.656 377.256C740.009 337.007 601.617 272.846 547.126 431.451C498.048 569.858 443.074 644.879 224.468 555.805C5.86274 466.732 -15.9406 578.389 -22.0395 668.476" stroke="#3787FE"/>
<path d="M1346.13 357.35C1299.52 372.413 1154.59 359.722 946.899 375.182C736.084 336.99 596.879 269.972 542.281 428.731C493.264 566.661 439.591 641.642 222.434 553.177C5.27675 464.711 -15.7725 576.967 -21.4989 666.453" stroke="#3988FE"/>
<path d="M1340.51 355.29C1293.73 369.554 1148.56 354.609 941.142 373.108C732.159 336.972 592.14 267.098 537.435 426.012C488.479 563.464 436.107 638.405 220.399 550.548C4.69042 462.691 -15.6047 575.546 -20.9587 664.43" stroke="#3A89FE"/>
<path d="M1334.89 353.23C1287.94 366.694 1142.52 349.495 935.386 371.034C728.234 336.955 587.402 264.224 532.589 423.292C483.695 560.268 432.624 635.169 218.364 547.919C4.10443 460.67 -15.4366 574.125 -20.4181 662.407" stroke="#3B8AFE"/>
<path d="M1329.26 351.169C1282.15 363.834 1136.48 344.382 929.629 368.959C724.309 336.937 582.664 261.35 527.743 420.572C478.911 557.071 429.14 631.932 216.329 545.291C3.5181 458.65 -15.2688 572.703 -19.8779 660.383" stroke="#3D8BFE"/>
<path d="M1323.64 349.109C1276.36 360.974 1130.44 339.268 923.872 366.886C720.384 336.919 577.926 258.476 522.897 417.852C474.127 553.874 425.657 628.695 214.295 542.662C2.93205 456.629 -15.1007 571.282 -19.3374 658.36" stroke="#3E8BFE"/>
<path d="M1318.02 347.049C1270.58 358.115 1124.4 334.155 918.115 364.812C716.459 336.902 573.187 255.602 518.051 415.133C469.342 550.677 422.173 625.458 212.26 540.033C2.34577 454.609 -14.9329 569.861 -18.7972 656.337" stroke="#3F8CFE"/>
<path d="M1312.39 344.988C1264.79 355.255 1118.36 329.041 912.358 362.738C712.534 336.884 568.449 252.728 513.206 412.413C464.558 547.48 418.69 622.222 210.225 537.405C1.75973 452.588 -14.7649 568.44 -18.2567 654.314" stroke="#408DFE"/>
<path d="M1306.77 342.928C1259 352.395 1112.32 323.928 906.601 360.663C708.609 336.866 563.711 249.854 508.36 409.693C459.774 544.283 415.206 618.985 208.19 534.776C1.17345 450.567 -14.597 567.018 -17.7164 652.291" stroke="#428EFE"/>
<path d="M1301.14 340.867C1253.21 349.535 1106.28 318.814 900.845 358.589C704.685 336.849 558.973 246.98 503.514 406.973C454.99 541.087 411.723 615.748 206.155 532.147C0.587406 448.547 -14.429 565.597 -17.176 650.268" stroke="#438FFE"/>
<path d="M1295.52 338.807C1247.42 346.675 1100.24 313.701 895.088 356.516C700.76 336.831 554.234 244.106 498.668 404.253C450.205 537.89 408.24 612.511 204.12 529.519C0.00112846 446.526 -14.2612 564.176 -16.6356 648.245" stroke="#448FFE"/>
<path d="M1289.9 336.747C1241.64 343.815 1094.2 308.587 889.331 354.441C696.835 336.813 549.496 241.233 493.822 401.534C445.421 534.693 404.756 609.275 202.085 526.89C-0.585163 444.506 -14.0934 562.754 -16.0954 646.222" stroke="#4690FE"/>
<path d="M1284.27 334.686C1235.85 340.956 1088.16 303.474 883.574 352.367C692.91 336.796 544.758 238.358 488.976 398.814C440.637 531.496 401.272 606.038 200.05 524.261C-1.17144 442.485 -13.9255 561.333 -15.5551 644.198" stroke="#4791FE"/>
<path d="M1278.65 332.626C1230.06 338.096 1082.12 298.36 877.817 350.293C688.985 336.778 540.019 235.485 484.13 396.094C435.852 528.299 397.789 602.801 198.016 521.633C-1.75748 440.465 -13.7575 559.912 -15.0147 642.175" stroke="#4892FE"/>
<path d="M1273.03 330.565C1224.27 335.236 1076.08 293.247 872.06 348.219C685.06 336.76 535.281 232.611 479.285 393.374C431.068 525.103 394.305 599.564 195.981 519.004C-2.34376 438.444 -13.5896 558.491 -14.4744 640.152" stroke="#4A93FE"/>
<path d="M1267.4 328.505C1218.48 332.376 1070.05 288.133 866.304 346.145C681.135 336.743 530.543 229.737 474.439 390.654C426.284 521.906 390.822 596.327 193.946 516.375C-2.92981 436.424 -13.4216 557.069 -13.9339 638.129" stroke="#4B93FE"/>
<path d="M1261.78 326.445C1212.69 329.516 1064.01 283.02 860.547 344.071C677.21 336.725 525.805 226.863 469.593 387.935C421.5 518.709 387.339 593.091 191.911 513.747C-3.51584 434.403 -13.2535 555.648 -13.3933 636.106" stroke="#4C94FE"/>
<path d="M1256.15 324.384C1206.91 326.657 1057.97 277.907 854.79 341.997C673.285 336.707 521.066 223.989 464.747 385.215C416.715 515.512 383.855 589.854 189.877 511.118C-4.10213 432.383 -13.0857 554.227 -12.8531 634.083" stroke="#4E95FE"/>
<path d="M1250.53 322.324C1201.12 323.797 1051.93 272.793 849.033 339.923C669.36 336.69 516.328 221.115 459.901 382.495C411.931 512.315 380.372 586.617 187.842 508.49C-4.68842 430.362 -12.918 552.805 -12.3129 632.06" stroke="#4F96FE"/>
<path d="M1244.91 320.263C1195.33 320.937 1045.89 267.68 843.276 337.849C665.435 336.672 511.59 218.241 455.056 379.775C407.147 509.118 376.888 583.38 185.807 505.861C-5.27439 428.341 -12.7498 551.384 -11.7724 630.036" stroke="#5097FE"/>
<path d="M1239.28 318.203C1189.54 318.077 1039.85 262.566 837.52 335.775C661.51 336.654 506.852 215.367 450.21 377.056C402.363 505.922 373.405 580.144 183.772 503.232C-5.86044 426.321 -12.5818 549.963 -11.2319 628.013" stroke="#5297FE"/>
<path d="M1233.66 316.143C1183.75 315.217 1033.81 257.453 831.763 333.701C657.585 336.637 502.113 212.493 445.364 374.336C397.578 502.725 369.921 576.907 181.737 500.604C-6.44672 424.301 -12.4139 548.541 -10.6916 625.99" stroke="#5398FE"/>
<path d="M1228.04 314.083C1177.97 312.358 1027.77 252.339 826.006 331.627C653.661 336.619 497.375 209.619 440.518 371.616C392.794 499.528 366.438 573.67 179.703 497.975C-7.03276 422.28 -12.2459 547.12 -10.1512 623.967" stroke="#5499FE"/>
<path d="M1222.41 312.022C1172.18 309.498 1021.73 247.226 820.249 329.553C649.736 336.601 492.637 206.745 435.672 368.896C388.01 496.331 362.954 570.433 177.668 495.346C-7.61904 420.259 -12.0781 545.699 -9.61084 621.944" stroke="#569AFE"/>
<path d="M1216.79 309.962C1166.39 306.638 1015.69 242.112 814.492 327.479C645.811 336.584 487.899 203.871 430.827 366.176C383.226 493.135 359.471 567.197 175.633 492.718C-8.20508 418.239 -11.91 544.277 -9.07039 619.921" stroke="#579BFE"/>
<path d="M1211.16 307.901C1160.6 303.778 1009.65 236.999 808.735 325.405C641.886 336.566 483.16 200.997 425.981 363.457C378.441 489.938 355.988 563.96 173.598 490.089C-8.79136 416.218 -11.7422 542.856 -8.53007 617.898" stroke="#589BFE"/>
<path d="M1205.54 305.841C1154.81 300.918 1003.61 231.885 802.979 323.331C637.961 336.548 478.422 198.123 421.135 360.737C373.657 486.741 352.504 560.723 171.563 487.46C-9.37741 414.198 -11.5742 541.435 -7.98963 615.874" stroke="#5A9CFE"/>
<path d="M1199.92 303.78C1149.02 298.058 997.575 226.772 797.221 321.257C634.036 336.531 473.684 195.249 416.289 358.017C368.872 483.544 349.02 557.486 169.528 484.832C-9.96393 412.177 -11.4065 540.013 -7.44955 613.851" stroke="#5B9DFE"/>
<path d="M1194.29 301.72C1143.24 295.198 991.536 221.659 791.465 319.183C630.111 336.513 468.946 192.375 411.443 355.297C364.088 480.347 345.537 554.25 167.494 482.203C-10.55 410.157 -11.2385 538.592 -6.9091 611.828" stroke="#5C9EFE"/>
<path d="M1188.67 299.66C1137.45 292.339 985.496 216.545 785.708 317.109C626.186 336.496 464.207 189.502 406.597 352.578C359.304 477.15 342.053 551.013 165.459 479.575C-11.1362 408.136 -11.0706 537.171 -6.36878 609.805" stroke="#5E9EFE"/>
<path d="M1183.05 297.599C1131.66 289.479 979.457 211.432 779.951 315.035C622.261 336.478 459.469 186.628 401.751 349.858C354.52 473.954 338.57 547.776 163.424 476.946C-11.7223 406.116 -10.9026 535.75 -5.82834 607.782" stroke="#5F9FFE"/>
<path d="M1177.42 295.539C1125.87 286.619 973.418 206.318 774.194 312.961C618.336 336.46 454.731 183.754 396.906 347.138C349.736 470.757 335.087 544.539 161.389 474.317C-12.3083 404.095 -10.7346 534.328 -5.28789 605.759" stroke="#60A0FE"/>
<path d="M1171.8 293.479C1120.08 283.759 967.379 201.205 768.437 310.887C614.411 336.443 449.992 180.88 392.06 344.418C344.951 467.56 331.603 541.303 159.354 471.689C-12.8946 402.075 -10.5667 532.907 -4.74757 603.736" stroke="#62A1FE"/>
<path d="M1166.18 291.418C1114.3 280.9 961.34 196.091 762.681 308.813C610.486 336.425 445.254 178.006 387.214 341.699C340.167 464.363 328.12 538.066 157.319 469.06C-13.4809 400.054 -10.399 531.486 -4.20737 601.713" stroke="#63A2FE"/>
<path d="M1160.55 289.358C1108.51 278.04 955.301 190.978 756.924 306.739C606.561 336.407 440.516 175.132 382.368 338.979C335.383 461.166 324.636 534.829 155.285 466.431C-14.0669 398.033 -10.2308 530.064 -3.6668 599.689" stroke="#64A2FE"/>
<path d="M1154.93 287.297C1102.72 275.18 949.261 185.864 751.167 304.665C602.637 336.39 435.778 172.258 377.522 336.259C330.599 457.97 321.153 531.592 153.25 463.803C-14.653 396.013 -10.0628 528.643 -3.12635 597.666" stroke="#65A3FE"/>
<path d="M1149.3 285.237C1096.93 272.32 943.222 180.751 745.41 302.591C598.712 336.372 431.039 169.384 372.676 333.539C325.814 454.773 317.669 528.356 151.215 461.174C-15.2393 393.992 -9.89495 527.222 -2.58603 595.643" stroke="#67A4FE"/>
<path d="M1143.68 283.177C1091.14 269.46 937.183 175.638 739.653 300.517C594.787 336.354 426.301 166.51 367.831 330.819C321.03 451.576 314.186 525.119 149.18 458.545C-15.8253 391.972 -9.72695 525.801 -2.04559 593.62" stroke="#68A5FE"/>
<path d="M1138.06 281.116C1085.36 266.6 931.144 170.524 733.897 298.443C590.862 336.337 421.563 163.636 362.985 328.099C316.246 448.379 310.702 521.882 147.145 455.917C-16.4116 389.951 -9.55912 524.379 -1.50533 591.597" stroke="#69A6FE"/>
<path d="M1132.43 279.056C1079.57 263.741 925.105 165.411 728.14 296.369C586.937 336.319 416.825 160.762 358.139 325.38C311.462 445.182 307.219 518.645 145.111 453.288C-16.9976 387.931 -9.39106 522.958 -0.964819 589.574" stroke="#6BA6FE"/>
<path d="M1126.81 276.996C1073.78 260.881 919.065 160.297 722.383 294.295C583.012 336.301 412.086 157.888 353.293 322.66C306.677 441.986 303.736 515.409 143.076 450.659C-17.5839 385.91 -9.22323 521.537 -0.424558 587.551" stroke="#6CA7FE"/>
<path d="M1121.19 274.935C1067.99 258.021 913.026 155.184 716.626 292.221C579.087 336.284 407.348 155.014 348.447 319.94C301.893 438.789 300.252 512.172 141.041 448.031C-18.1699 383.89 -9.05517 520.115 0.115948 585.527" stroke="#6DA8FE"/>
<path d="M1115.56 272.875C1062.2 255.161 906.987 150.07 710.869 290.147C575.162 336.266 402.61 152.14 343.601 317.22C297.109 435.592 296.769 508.935 139.006 445.402C-18.7562 381.869 -8.88734 518.694 0.656209 583.504" stroke="#6FA9FE"/>
<path d="M1109.94 270.814C1056.42 252.301 900.948 144.957 705.113 288.073C571.237 336.248 397.872 149.266 338.756 314.501C292.324 432.395 293.285 505.698 136.971 442.774C-19.3423 379.849 -8.71928 517.273 1.19672 581.481" stroke="#70AAFE"/>
<path d="M1104.31 268.754C1050.63 249.442 894.908 139.843 699.355 285.999C567.312 336.231 393.133 146.392 333.91 311.781C287.54 429.198 289.801 502.462 134.936 440.145C-19.9288 377.828 -8.5517 515.851 1.73673 579.458" stroke="#71AAFF"/>
<path d="M1098.69 266.693C1044.84 246.582 888.869 134.73 693.599 283.924C563.387 336.213 388.395 143.518 329.064 309.061C282.756 426.001 286.318 499.225 132.902 437.516C-20.5148 375.807 -8.38363 514.43 2.27724 577.435" stroke="#73ABFF"/>
<path d="M1093.07 264.633C1039.05 243.722 882.83 129.616 687.842 281.85C559.463 336.195 383.657 140.644 324.218 306.341C277.972 422.805 282.835 495.988 130.867 434.887C-21.1009 373.787 -8.21557 513.009 2.81774 575.412" stroke="#74ACFF"/>
<path d="M1087.44 262.573C1033.26 240.862 876.791 124.503 682.085 279.776C555.538 336.178 378.919 137.771 319.372 303.622C273.187 419.608 279.351 492.751 128.832 432.259C-21.6872 371.766 -8.04774 511.588 3.35801 573.389" stroke="#75ADFF"/>
<path d="M1081.82 260.513C1027.47 238.002 870.751 119.389 676.328 277.703C551.612 336.16 374.18 134.897 314.526 300.902C268.403 416.411 275.868 489.515 126.797 429.63C-22.2734 369.746 -7.87992 510.166 3.89827 571.365" stroke="#77AEFF"/>
<path d="M1076.2 258.452C1021.69 235.142 864.712 114.276 670.571 275.628C547.688 336.142 369.442 132.023 309.681 298.182C263.619 413.214 272.384 486.278 124.762 427.001C-22.8595 367.725 -7.71185 508.745 4.43877 569.342" stroke="#78AEFF"/>
<path d="M1070.57 256.392C1015.9 232.283 858.673 109.162 664.815 273.554C543.763 336.125 364.704 129.149 304.835 295.462C258.834 410.017 268.901 483.041 122.728 424.373C-23.4455 365.705 -7.54385 507.324 4.97922 567.319" stroke="#79AFFF"/>
<path d="M1064.95 254.331C1010.11 229.423 852.634 104.049 659.058 271.48C539.838 336.107 359.966 126.275 299.989 292.743C254.05 406.821 265.417 479.804 120.693 421.744C-24.0318 363.684 -7.37602 505.902 5.51948 565.296" stroke="#7BB0FF"/>
<path d="M1059.32 252.271C1004.32 226.563 846.595 98.9357 653.301 269.406C535.913 336.09 355.227 123.401 295.143 290.023C249.266 403.624 261.934 476.568 118.658 419.116C-24.6178 361.664 -7.20796 504.481 6.05999 563.273" stroke="#7CB1FF"/>
<path d="M1053.7 250.21C998.534 223.703 840.555 93.8221 647.544 267.332C531.988 336.072 350.489 120.527 290.297 287.303C244.482 400.427 258.45 473.331 116.623 416.487C-25.2041 359.643 -7.04013 503.06 6.60025 561.25" stroke="#7DB2FF"/>
<path d="M1048.08 248.15C992.746 220.843 834.516 88.7087 641.787 265.258C528.063 336.054 345.751 117.653 285.452 284.583C239.697 397.23 254.967 470.094 114.588 413.858C-25.7902 357.623 -6.87207 501.638 7.14075 559.227" stroke="#7FB2FF"/>
<path d="M1042.45 246.09C986.957 217.984 828.477 83.5953 636.03 263.184C524.138 336.037 341.013 114.779 280.606 281.863C234.913 394.033 251.483 466.857 112.554 411.23C-26.3765 355.602 -6.70425 500.217 7.68102 557.204" stroke="#80B3FF"/>
<path d="M1036.83 244.029C981.169 215.124 822.438 78.4816 630.274 261.11C520.213 336.019 336.274 111.905 275.76 279.143C230.129 390.836 248 463.62 110.519 408.601C-26.9625 353.582 -6.53618 498.796 8.22152 555.18" stroke="#81B4FF"/>
<path d="M1031.21 241.969C975.381 212.264 816.398 73.3682 624.517 259.036C516.288 336.001 331.536 109.031 270.914 276.424C225.345 387.64 244.517 460.384 108.484 405.972C-27.5488 351.561 -6.36836 497.374 8.76178 553.157" stroke="#83B5FF"/>
<path d="M1025.58 239.909C969.593 209.404 810.359 68.2548 618.76 256.962C512.364 335.983 326.798 106.157 266.068 273.704C220.56 384.443 241.033 457.147 106.449 403.344C-28.1348 349.541 -6.20029 495.953 9.30229 551.134" stroke="#84B6FF"/>
<path d="M1019.96 237.848C963.805 206.544 804.32 63.1415 613.003 254.888C508.439 335.966 322.06 103.283 261.222 270.984C215.776 381.246 237.55 453.91 104.414 400.715C-28.7211 347.52 -6.03247 494.532 9.84255 549.111" stroke="#85B6FF"/>
<path d="M1014.34 235.788C958.017 203.684 798.281 58.0279 607.246 252.814C504.514 335.948 317.321 100.409 256.377 268.264C210.992 378.049 234.066 450.673 102.38 398.086C-29.3071 345.499 -5.8644 493.111 10.3831 547.088" stroke="#86B7FF"/>
<path d="M1008.71 233.727C952.228 200.825 792.241 52.9144 601.489 250.74C500.589 335.93 312.583 97.5354 251.53 265.545C206.207 374.852 230.582 447.437 100.344 395.458C-29.8937 343.479 -5.69682 491.689 10.9231 545.065" stroke="#88B8FF"/>
<path d="M1003.09 231.667C946.44 197.965 786.202 47.801 595.733 248.666C496.664 335.913 307.845 94.6615 246.685 262.825C201.423 371.656 227.099 444.2 98.3097 392.829C-30.4797 341.458 -5.52875 490.268 11.4636 543.041" stroke="#89B9FF"/>
<path d="M997.464 229.607C940.652 195.105 780.163 42.6876 589.976 246.592C492.739 335.895 303.106 91.7876 241.839 260.105C196.639 368.459 223.616 440.963 96.2748 390.201C-31.066 339.438 -5.36099 488.847 12.0038 541.018" stroke="#8ABAFF"/>
<path d="M991.84 227.546C934.864 192.245 774.124 37.574 584.219 244.518C488.814 335.877 298.368 88.9135 236.993 257.385C191.855 365.262 220.132 437.726 94.2401 387.572C-31.652 337.417 -5.19293 487.425 12.5443 538.995" stroke="#8CBAFF"/>
<path d="M986.217 225.486C929.076 189.385 768.085 32.4606 578.462 242.444C484.889 335.86 293.63 86.0396 232.147 254.666C187.07 362.065 216.649 434.49 92.2054 384.943C-32.2381 335.397 -5.02486 486.004 13.0848 536.972" stroke="#8DBBFF"/>
<path d="M980.593 223.426C923.288 186.526 762.045 27.3472 572.705 240.37C480.964 335.842 288.892 83.1657 227.301 251.946C182.286 358.868 213.165 431.253 90.1705 382.315C-32.8243 333.376 -4.85703 484.583 13.6251 534.949" stroke="#8EBCFF"/>
<path d="M974.969 221.365C917.5 183.666 756.006 22.2338 566.949 238.296C477.039 335.825 284.154 80.2919 222.456 249.226C177.502 355.672 209.682 428.016 88.1358 379.686C-33.4104 331.356 -4.68897 483.162 14.1656 532.926" stroke="#90BDFF"/>
<path d="M969.346 219.305C911.712 180.806 749.967 17.1202 561.192 236.222C473.114 335.807 279.415 77.4178 217.61 246.506C172.718 352.475 206.198 424.779 86.1008 377.057C-33.9967 329.335 -4.52115 481.74 14.7058 530.903" stroke="#91BDFF"/>
<rect x="-5" y="-5" width="1452" height="728" fill="#0A68F3" fill-opacity="0.9"/>
</svg>
